# xmcd
#
# Track frame offsets: 
#        150
#        13493
#        29526
#        44767
#        56531
#        72364
#        86610
#        98088
#        110982
#        121153
#        129762
#        143228
#        153348
#        166883
#        177875
#        195440
#        205916
#        217985
#        228416
#        236967
#        245294
#        258742
#        269483
#        281488
#        293410
#        303516
#        317039
#        327615
#        337756
#        348787
#
# Disc length: 4788 seconds
#
# Revision: 3
# Processed by: cddbd v1.5.2PL0 Copyright (c) Steve Scherf et al.
# Submitted via: ExactAudioCopyFreeDBPlugin 1.0
#
DISCID=c112b21e
DTITLE=Waylon Jennings - The Journey - Six Strings Away - Vol. 2
DYEAR=1999
DGENRE=Country
TTITLE0=Don't Play The Game
TTITLE1=The House Song
TTITLE2=Delia's Gone
TTITLE3=It's All Over Now
TTITLE4=The Thirty Third Of August
TTITLE5=I'm Gonna Leave (While I Still Love You)
TTITLE6=Grey Eyes You Know
TTITLE7=I May Never Pass This Way Again
TTITLE8=(I'd Be) A Legend In My Time
TTITLE9=Lila
TTITLE10=Willie And Laura Mae Jones
TTITLE11=I Ain't The One (& Jessi Colter)
TTITLE12=Singer Of Sad Songs
TTITLE13=Let Me Stay Awhile
TTITLE14=Sunday Mornin' Comin' Down
TTITLE15=(I'd Be) A Legend In My Time
TTITLE16=It's Sure Been Fun
TTITLE17=Where Love Has Died
TTITLE18=Yellow Haired Woman
TTITLE19=This Time Tomorrow (I'll Be Gone)
TTITLE20=Life Goes On
TTITLE21=People In Dallas Got Hair
TTITLE22=Six White Horses
TTITLE23=Pickin' White Gold
TTITLE24=Donna On My Mind
TTITLE25=Honky Tonk Woman
TTITLE26=Time Between Bottles Of Wine
TTITLE27=Ragged But Right
TTITLE28=If I Were A Carpenter
TTITLE29=Must You Throw Dirt In My Face
EXTD=
EXTT0=
EXTT1=
EXTT2=
EXTT3=
EXTT4=
EXTT5=
EXTT6=
EXTT7=
EXTT8=
EXTT9=
EXTT10=
EXTT11=
EXTT12=
EXTT13=
EXTT14=
EXTT15=
EXTT16=
EXTT17=
EXTT18=
EXTT19=
EXTT20=
EXTT21=
EXTT22=
EXTT23=
EXTT24=
EXTT25=
EXTT26=
EXTT27=
EXTT28=
EXTT29=
PLAYORDER=
